PathFileType  4	(X/Y/Z) C:\Users\antoi\Documents\MyRepositories\mobilecap\ResultsAnalysis
DataRate	CameraRate	NumFrames	NumMarkers	Units	OrigDataRate	OrigDataStartFrame	OrigNumFrames
100.0	100.0	6	51	mm	100.0	34	132
Frame#	Time	r_knee			r_shank_antsup			r_ankle			r_calc			r_5meta			r_toe			L_knee			L_shank_antsup			L_ankle			L_calc			L_5meta			L_toe			r_sh2			r_sh3			r_sh4			L_sh2			L_sh3			r_thigh1			r_thigh2			r_thigh3			r_thigh4			r_thigh5			L_thigh1			L_thigh2			L_thigh3			L_thigh4			r.ASIS			r.PSIS			L.ASIS			L.PSIS			C7			R_Shoulder			L_Shoulder			R_Sternum			L_Sternum			R_humerus			R_elbow_med			R_elbow_lat			R_forearm			R_wrist_radius			R_wrist_ulna			L_humerus			L_elbow_med			L_elbow_lat			L_forearm			L_wrist_radius			L_wrist_ulna			R_HJC			L_HJC			R_HJC_reg			L_HJC_reg			
		X1	Y1	Z1	X2	Y2	Z2	X3	Y3	Z3	X4	Y4	Z4	X5	Y5	Z5	X6	Y6	Z6	X7	Y7	Z7	X8	Y8	Z8	X9	Y9	Z9	X10	Y10	Z10	X11	Y11	Z11	X12	Y12	Z12	X13	Y13	Z13	X14	Y14	Z14	X15	Y15	Z15	X16	Y16	Z16	X17	Y17	Z17	X18	Y18	Z18	X19	Y19	Z19	X20	Y20	Z20	X21	Y21	Z21	X22	Y22	Z22	X23	Y23	Z23	X24	Y24	Z24	X25	Y25	Z25	X26	Y26	Z26	X27	Y27	Z27	X28	Y28	Z28	X29	Y29	Z29	X30	Y30	Z30	X31	Y31	Z31	X32	Y32	Z32	X33	Y33	Z33	X34	Y34	Z34	X35	Y35	Z35	X36	Y36	Z36	X37	Y37	Z37	X38	Y38	Z38	X39	Y39	Z39	X40	Y40	Z40	X41	Y41	Z41	X42	Y42	Z42	X43	Y43	Z43	X44	Y44	Z44	X45	Y45	Z45	X46	Y46	Z46	X47	Y47	Z47	X48	Y48	Z48	X49	Y49	Z49	X50	Y50	Z50	X51	Y51	Z51	

34	0.33000000	249.01597	492.89568	-51.07725	277.61603	421.34763	-72.29444	172.75113	97.77267	-109.36535	105.51221	69.20984	-151.48716	270.20842	43.50800	-67.15055	324.01647	69.69362	-118.03954	429.64739	535.19618	-347.54723	436.89527	437.18235	-354.89427	280.07097	170.58735	-301.48199	214.45727	160.31441	-239.56873	345.97142	72.07875	-349.70289	406.47333	86.89904	-309.42890	243.25647	309.61442	-59.44423	200.82891	438.64321	-43.41611	170.65795	330.49637	-52.85635	359.11332	477.95886	-340.15318	312.28918	364.83643	-337.46946	343.26054	803.15955	-0.10160	330.98065	691.01582	-17.90823	221.81127	693.73657	5.32304	233.85116	808.73090	32.23245	274.65353	671.84025	12.02168	336.69285	785.36651	-369.91490	409.07656	667.97383	-364.69245	250.08070	729.32425	-314.13123	328.45643	612.62786	-314.30784	359.81512	977.36119	-35.85659	163.58388	1017.25641	-98.80891	341.18030	961.47842	-285.54646	146.15241	1017.10426	-197.85923	151.22244	1419.15648	-172.85275	278.63356	1399.87109	-11.92841	201.45788	1383.06984	-359.20157	293.93190	1397.17694	-172.64672	291.11767	1397.38628	-217.28699	320.14639	1271.66263	49.78299	306.52048	1050.97216	18.98307	329.93133	1072.26088	83.52209	441.57790	985.96725	87.64041	523.39170	878.35064	85.39262	503.86835	862.36321	110.99601	202.61422	1262.92914	-412.68435	178.76135	1036.94730	-321.00490	167.67788	1051.74257	-397.67196	214.08884	950.09460	-423.98723	216.48581	792.61995	-443.23909	183.22399	797.28854	-451.70686	279.24008	898.52513	-49.83045	261.11217	890.69443	-255.35852	291.82780	897.90267	-58.78982	263.12948	897.65269	-221.86608	
35	0.34000000	251.83281	493.03374	-51.51775	279.68688	421.29593	-72.58376	173.01929	98.09696	-109.51899	105.60470	69.35057	-151.56353	270.26387	43.55098	-67.13820	324.14210	69.56377	-117.99987	445.12348	536.21144	-347.29781	456.26818	438.10996	-354.95713	317.57199	160.80998	-302.78094	253.35011	146.04155	-240.24937	389.25052	67.28380	-352.38672	449.23781	85.83285	-312.69699	244.53237	309.89222	-59.56920	202.98611	439.21078	-43.95298	172.15138	331.24924	-53.30643	375.98107	473.54990	-340.15107	336.74566	357.86113	-338.10818	351.97831	801.41222	-0.81012	337.26441	689.69927	-18.69179	228.52625	694.25420	4.26523	242.69390	808.86700	31.73695	280.90152	671.39884	10.95356	350.71909	786.10706	-370.50202	423.78904	669.20076	-364.53570	263.27032	729.45126	-316.45695	342.75420	612.86895	-315.98712	371.12304	976.53950	-36.05169	175.14938	1016.97095	-100.00228	353.34615	961.01357	-285.84127	158.08007	1016.99293	-199.05016	163.11393	1418.80157	-172.83781	290.70295	1399.49646	-12.16165	212.77732	1382.75139	-359.19337	305.80521	1396.79218	-172.86405	302.88091	1396.98301	-217.53984	333.46932	1271.72078	49.27111	322.67052	1050.93686	18.11255	346.20955	1072.36580	82.44429	460.04605	988.67300	84.87511	544.74879	883.37637	80.88246	525.83563	866.65110	106.53548	212.07390	1262.65467	-412.46802	185.45730	1037.39215	-319.77057	172.97532	1052.43137	-396.38691	215.66555	949.62454	-423.48999	212.14984	791.71436	-442.66803	179.03063	798.14649	-450.81227	290.30222	897.93119	-50.53760	273.05692	890.36341	-256.15010	303.02966	897.25482	-59.33308	274.90739	897.29114	-222.52140	
36	0.35000000	254.91710	493.10411	-51.97098	282.03019	421.18053	-72.91130	173.31905	98.41726	-109.68685	105.68595	69.52026	-151.65098	270.32013	43.58480	-67.14398	324.29177	69.40829	-117.96192	459.57620	536.42122	-346.89648	474.66103	438.75132	-354.90761	355.69591	151.54199	-304.10610	293.43851	132.25044	-240.84760	432.82444	63.40019	-355.21671	492.00509	85.77409	-316.27101	246.00191	310.12325	-59.70105	205.43497	439.73331	-44.46361	173.86860	331.98033	-53.71895	392.19377	468.50321	-339.72282	361.09267	350.68533	-338.43120	360.70827	799.54628	-1.53532	343.63368	688.31056	-19.52680	235.32114	694.64741	3.17457	251.56779	808.87031	31.08750	287.26064	670.86407	9.87794	364.31210	786.25857	-371.04560	437.77141	669.66405	-364.24969	276.09603	729.36606	-318.54190	356.07536	612.67479	-317.59461	382.45346	975.35356	-36.35585	186.79423	1016.48862	-101.26623	365.55758	960.15968	-286.22974	170.08709	1016.63839	-200.31423	175.02390	1418.14460	-172.85680	302.78538	1398.75285	-12.39028	224.20077	1382.17589	-359.21944	317.72968	1396.11485	-173.08288	314.71725	1396.30465	-217.79012	346.77041	1271.39836	48.70247	338.67296	1050.51923	17.22906	362.34848	1072.16234	81.33473	478.27117	991.10549	82.06227	565.74950	888.18639	76.33617	547.43870	870.74890	102.03361	221.58768	1262.16728	-412.31175	192.18390	1037.61762	-318.61136	178.19464	1052.99670	-395.11679	217.29300	949.20924	-423.04672	208.30431	791.16161	-442.08123	175.38626	799.11541	-449.83635	301.35145	897.03892	-51.32007	284.97587	889.71023	-257.01084	314.19127	896.36379	-59.93883	286.64831	896.61048	-223.22928	
37	0.36000000	258.30199	493.09583	-52.44604	284.67410	420.99060	-73.28381	173.64631	98.74095	-109.86494	105.76659	69.72196	-151.75161	270.38729	43.60587	-67.15366	324.47337	69.22449	-117.92492	472.92396	535.75800	-346.29375	491.97983	439.07549	-354.77447	394.27709	143.03641	-305.50249	334.59316	119.21749	-241.44596	476.55338	60.65518	-358.19131	534.57655	86.96375	-320.14210	247.70772	310.29516	-59.85993	208.21173	440.20322	-44.95682	175.82849	332.68800	-54.10495	407.76625	462.86439	-338.73697	385.25228	343.40215	-338.31920	369.47943	797.58395	-2.26864	350.17700	686.86361	-20.41099	242.23563	694.91440	2.07807	260.49929	808.75777	30.26340	293.77387	670.24384	8.81095	377.47825	785.78879	-371.52228	450.97083	669.30039	-363.82113	288.52672	729.00796	-320.33628	368.38779	611.99230	-319.03773	393.79438	973.79410	-36.76946	198.52648	1015.81215	-102.60071	377.81341	958.94713	-286.70973	182.18153	1016.04415	-201.65204	186.96949	1417.19608	-172.92030	314.89190	1397.65829	-12.62813	235.74294	1381.35333	-359.29497	329.70895	1395.16225	-173.31981	326.63220	1395.37162	-218.05286	360.04665	1270.71032	48.07269	354.53928	1049.73498	16.32006	378.35273	1071.65559	80.18111	496.25601	993.27036	79.20171	586.34690	892.75369	71.76304	568.64197	874.64406	97.50001	231.16072	1261.49110	-412.24021	198.93486	1037.64131	-317.55507	183.35700	1053.46498	-393.86406	218.99367	948.85285	-422.67119	204.99051	790.92992	-441.49718	172.31474	800.12125	-448.77610	312.38517	895.84141	-52.19026	296.87405	888.75625	-257.95531	325.30376	895.24751	-60.60915	298.34407	895.62976	-223.98832	
38	0.37000000	262.01557	493.00503	-52.94934	287.63213	420.71634	-73.69941	174.00350	99.08354	-110.04581	105.86143	69.96542	-151.85956	270.47482	43.61361	-67.14218	324.69446	69.01638	-117.88715	485.12748	534.18151	-345.44476	508.17112	439.03022	-354.58345	433.07844	135.53411	-307.00808	376.57002	107.24231	-242.12919	520.22115	59.30078	-361.31810	576.69913	89.63594	-324.27655	249.67864	310.40426	-60.05780	211.33147	440.62398	-45.44390	178.04051	333.37717	-54.48094	422.74617	456.67698	-337.11085	409.11424	336.09571	-337.68399	378.32507	795.55657	-3.01454	356.96502	685.36709	-21.32778	249.31172	695.05790	0.99519	269.51478	808.54494	29.26288	300.48130	669.55176	7.76203	390.19323	784.66224	-371.90754	463.33566	668.06092	-363.25884	300.50746	728.30196	-321.79008	379.72156	610.77582	-320.19200	405.15214	971.88516	-37.29568	210.35365	1014.94636	-104.00886	390.11861	957.41405	-287.28239	194.37251	1015.21246	-203.06755	198.97179	1415.97149	-173.04113	327.03050	1396.23837	-12.89053	247.41768	1380.29768	-359.43592	341.75113	1393.95436	-173.59372	338.62925	1394.20125	-218.34623	373.28949	1269.67924	47.38189	370.27495	1048.61355	15.36565	394.21672	1070.84835	78.96371	513.98811	995.16861	76.29750	606.50115	897.05294	67.18201	589.41770	878.32119	92.95059	240.80623	1260.65347	-412.26993	205.70728	1037.49536	-316.63387	188.51571	1053.86079	-392.64186	220.82113	948.55742	-422.36784	202.24549	790.96058	-440.92687	169.83810	801.11964	-447.63372	323.42143	894.35401	-53.15615	308.77155	887.52555	-258.99237	336.37994	893.93382	-61.34857	310.01020	894.37244	-224.80199	
39	0.38000000	266.08789	492.83491	-53.48183	290.91479	420.35175	-74.14891	174.39794	99.46493	-110.21702	105.98747	70.26807	-151.96246	270.58490	43.61193	-67.07708	324.95704	68.79138	-117.84493	496.19021	531.68601	-344.30564	523.23882	438.57087	-354.34853	471.78952	129.24920	-308.65444	418.99646	96.62893	-242.97872	563.51423	59.57284	-364.61225	618.04814	93.96686	-328.61690	251.93367	310.45498	-60.29379	214.79990	441.00791	-45.92690	180.51481	334.05717	-54.85726	437.20906	450.00535	-334.83809	432.54991	328.85523	-336.50059	387.28239	793.49779	-3.78943	364.04103	683.82414	-22.26627	256.59447	695.08433	-0.06885	278.64160	808.24453	28.11458	307.42002	668.80545	6.72895	402.40161	782.84649	-372.18797	474.82889	665.92278	-362.60369	311.97792	727.17438	-322.85106	390.15475	608.99753	-320.92039	416.55004	969.68347	-37.94135	222.28053	1013.89532	-105.49637	402.48459	955.60535	-287.95546	206.66796	1014.14428	-204.56919	211.05076	1414.49001	-173.23377	339.20628	1394.52452	-13.19296	259.23665	1379.02742	-359.65613	353.86670	1392.50984	-173.92235	350.71338	1392.80697	-218.68780	386.48862	1268.33316	46.63216	385.87174	1047.19354	14.33956	409.92084	1069.74677	77.66231	531.43714	996.79257	73.35741	626.18330	901.06299	62.61871	609.74979	881.76015	88.40710	250.54411	1259.68403	-412.40640	212.50986	1037.22138	-315.87397	193.75287	1054.20122	-391.47542	222.85402	948.32094	-422.13675	200.10836	791.18597	-440.37908	167.97384	802.09471	-446.41313	334.49818	892.61274	-54.22283	320.70228	886.04416	-260.12677	347.45426	892.45445	-62.16793	321.68646	892.86493	-225.68356	
